<?xml version="1.0" encoding="UTF-8" standalone="no"?>
<svg
   xmlns:dc="http://purl.org/dc/elements/1.1/"
   xmlns:cc="http://creativecommons.org/ns#"
   xmlns:rdf="http://www.w3.org/1999/02/22-rdf-syntax-ns#"
   xmlns:svg="http://www.w3.org/2000/svg"
   xmlns="http://www.w3.org/2000/svg"
   xmlns:sodipodi="http://sodipodi.sourceforge.net/DTD/sodipodi-0.dtd"
   xmlns:inkscape="http://www.inkscape.org/namespaces/inkscape"
   version="1.1"
   id="Layer_1"
   x="0px"
   y="0px"
   width="150px"
   height="150px"
   viewBox="0 0 1000 1000"
   style="enable-background:new 0 0 1000 1000;"
   xml:space="preserve"
   sodipodi:docname="KM Sunflower.svg"
   inkscape:version="1.0.2 (e86c8708, 2021-01-15)"><metadata
   id="metadata27"><rdf:RDF><cc:Work
       rdf:about=""><dc:format>image/svg+xml</dc:format><dc:type
         rdf:resource="http://purl.org/dc/dcmitype/StillImage" /><dc:title></dc:title></cc:Work></rdf:RDF></metadata><defs
   id="defs25" /><sodipodi:namedview
   pagecolor="#ffffff"
   bordercolor="#666666"
   borderopacity="1"
   objecttolerance="10"
   gridtolerance="10"
   guidetolerance="10"
   inkscape:pageopacity="0"
   inkscape:pageshadow="2"
   inkscape:window-width="1043"
   inkscape:window-height="773"
   id="namedview23"
   showgrid="false"
   inkscape:zoom="0.599"
   inkscape:cx="539.01231"
   inkscape:cy="523.37229"
   inkscape:window-x="0"
   inkscape:window-y="25"
   inkscape:window-maximized="0"
   inkscape:current-layer="Layer_1" />
<style
   type="text/css"
   id="style10">
	.st0{fill:#875713;}
	.st1{fill:#FFD902;}
</style>
<g
   id="g20">
	<path
   class="st0"
   d="M600.3,615c-1.1,1.7-1.8,3.7-1.8,5.8c-2-0.4-4.2-0.1-6.1,0.6c1.3-1.7,2-3.7,2.1-5.7c1.9,0.3,3.9,0.1,5.8-0.7   H400.3c1.9,0.9,4,1.2,6,0.8c0.1,2,0.8,4,2.1,5.7c-2-0.8-4.1-1-6.1-0.6c-0.1-2.1-0.7-4.1-1.9-5.9h-76.8c-1.6,3.9-1.1,8.5,1.5,12.1   c2.8,3.8,7.3,5.6,11.7,5.1c-1.4,4.2-0.6,9,2.6,12.5c3.2,3.5,7.9,4.8,12.2,3.9c-1,4.3,0.3,9,3.9,12.2c3.5,3.2,8.3,4,12.5,2.6   c-0.5,4.4,1.3,8.9,5.1,11.7c3.8,2.8,8.7,3.1,12.7,1.2c-0.1,4.4,2.2,8.7,6.3,11.1c4.1,2.4,9,2.2,12.8-0.1c0.4,4.4,3.1,8.5,7.4,10.4   c4.3,1.9,9.2,1.2,12.7-1.4c0.9,4.3,4,8.1,8.5,9.5c4.5,1.5,9.2,0.3,12.5-2.7c1.3,4.2,4.8,7.6,9.4,8.6c4.6,1,9.2-0.7,12.1-4   c1.7,4.1,5.6,7.1,10.3,7.6c4.7,0.5,9.1-1.7,11.6-5.3c2.2,3.9,6.3,6.5,11,6.5c4.7,0,8.9-2.6,11-6.5c2.6,3.6,6.9,5.8,11.6,5.3   c4.7-0.5,8.5-3.5,10.3-7.6c2.9,3.3,7.5,5,12.1,4c4.6-1,8.1-4.4,9.4-8.6c3.2,3,8,4.2,12.5,2.7c4.5-1.5,7.6-5.2,8.5-9.6   c3.5,2.6,8.4,3.3,12.7,1.4c4.3-1.9,7-6,7.4-10.4c3.8,2.3,8.7,2.5,12.8,0.1c4.1-2.4,6.4-6.7,6.3-11.1c4,1.8,8.9,1.5,12.7-1.2   c3.8-2.8,5.6-7.3,5.1-11.7c4.2,1.4,9,0.6,12.5-2.6c3.5-3.2,4.8-7.9,3.9-12.2c4.3,1,9-0.3,12.2-3.9c3.2-3.5,4-8.3,2.6-12.5   c4.4,0.5,8.9-1.3,11.7-5.1c2.6-3.6,3-8.1,1.5-12H600.3z M352.3,624.2c-1.7-0.5-3.4-0.7-5.2-0.5c0.6-1.6,0.8-3.4,0.6-5.1   c1.6,0.6,3.3,0.7,5.1,0.5C352.3,620.8,352.1,622.5,352.3,624.2z M361,639.1c0.4-1.7,0.4-3.5,0.1-5.2c1.7,0.4,3.4,0.4,5.1,0   c-0.4,1.7-0.4,3.4,0,5.1C364.4,638.7,362.7,638.7,361,639.1z M374.6,619.8c1.6,0.6,3.3,0.9,4.9,0.8c-0.1,1.7,0.1,3.3,0.8,4.9   c-1.8-0.5-3.7-0.5-5.6-0.1C375.1,623.5,375.1,621.6,374.6,619.8z M376.3,652.9c0.2-1.7,0-3.5-0.5-5.2c1.7,0.2,3.4,0,5.1-0.5   c-0.2,1.7,0,3.4,0.5,5.1C379.7,652.1,377.9,652.3,376.3,652.9z M388.5,637.8c0.2-1.8,0-3.7-0.7-5.5c1.6,0.4,3.3,0.5,5,0.2   c0.1,1.7,0.5,3.3,1.3,4.8C392.2,637,390.3,637.2,388.5,637.8z M393,665c0-1.7-0.3-3.5-1-5.1c1.7,0,3.4-0.3,5-1c0,1.7,0.3,3.4,1.1,5   C396.3,663.9,394.6,664.3,393,665z M403.6,648.7c0-1.9-0.4-3.7-1.3-5.4c1.7,0.3,3.4,0.2,5-0.3c0.2,1.6,0.8,3.2,1.8,4.6   C407.1,647.5,405.3,647.9,403.6,648.7z M410.9,675.3c-0.2-1.7-0.7-3.4-1.5-4.9c1.7-0.1,3.4-0.7,4.8-1.6c0.2,1.7,0.7,3.4,1.6,4.8   C414,673.8,412.4,674.4,410.9,675.3z M415.4,630.5c-0.3-2-1.2-4-2.5-5.6c2,0.7,4.1,0.7,6.1,0.2c0.3,2,1.2,3.9,2.6,5.4   C419.6,629.9,417.4,629.9,415.4,630.5z M419.7,658c-0.2-1.9-0.8-3.6-1.8-5.2c1.7,0.1,3.4-0.2,4.9-0.8c0.4,1.6,1.2,3.1,2.2,4.4   C423.1,656.5,421.3,657,419.7,658z M432.5,632.8c0.5,2,1.6,3.8,3.2,5.1c-2.1-0.4-4.2-0.1-6.1,0.6c-0.5-2-1.6-3.9-3.1-5.3   C428.5,633.7,430.6,633.6,432.5,632.8z M429.7,683.7c-0.3-1.7-1-3.3-2-4.8c1.7-0.3,3.3-1,4.6-2.1c0.3,1.7,1.1,3.3,2.1,4.6   C432.7,681.9,431.1,682.6,429.7,683.7z M436.7,665.5c-0.4-1.8-1.2-3.5-2.4-5c1.7-0.1,3.3-0.5,4.8-1.3c0.6,1.6,1.5,3,2.7,4.2   C439.9,663.7,438.2,664.4,436.7,665.5z M444.5,645.2c-0.7-1.9-2-3.7-3.6-5c2.1,0.3,4.2-0.1,6-1.1c0.7,1.9,2,3.6,3.7,4.8   C448.4,643.8,446.3,644.3,444.5,645.2z M449.3,690c-0.5-1.7-1.4-3.2-2.5-4.5c1.6-0.5,3.1-1.4,4.4-2.5c0.5,1.6,1.4,3.1,2.6,4.4   C452.1,688,450.6,688.9,449.3,690z M454.3,671.3c-0.6-1.8-1.5-3.4-2.9-4.7c1.7-0.3,3.3-0.9,4.6-1.8c0.7,1.5,1.8,2.8,3.1,3.9   C457.4,669.1,455.7,670,454.3,671.3z M460,650.3c-0.9-1.9-2.3-3.5-4.1-4.6c2.1,0.1,4.1-0.6,5.8-1.7c0.9,1.8,2.4,3.4,4.2,4.4   C463.7,648.4,461.7,649.1,460,650.3z M469.5,694.3c-0.7-1.6-1.7-3-3-4.2c1.6-0.7,3-1.7,4.1-3c0.7,1.6,1.7,3,3,4.1   C472.1,692,470.6,693,469.5,694.3z M472.5,675.1c-0.7-1.7-1.9-3.2-3.3-4.4c1.6-0.4,3.1-1.2,4.4-2.3c0.9,1.4,2.1,2.6,3.5,3.5   C475.3,672.6,473.8,673.7,472.5,675.1z M476,653.6c-1.1-1.7-2.7-3.2-4.6-4.1c2.1-0.2,4-1,5.6-2.3c1.1,1.7,2.7,3.1,4.6,3.9   C479.5,651.4,477.5,652.3,476,653.6z M490,696.5c-0.9-1.5-2-2.8-3.4-3.9c1.5-0.8,2.8-2,3.8-3.4c0.8,1.5,2,2.8,3.4,3.8   C492.3,693.9,491,695.1,490,696.5z M491,677.1c-0.9-1.6-2.2-3-3.8-4c1.6-0.6,3-1.5,4.2-2.7c1,1.3,2.3,2.4,3.8,3.1   C493.6,674.3,492.1,675.5,491,677.1z M492.2,655.3c-1.3-1.6-3-2.9-5-3.6c2.1-0.4,3.9-1.4,5.3-2.9c1.3,1.6,3,2.8,5,3.4   C495.5,652.8,493.6,653.9,492.2,655.3z M508.2,648.9c1.4,1.5,3.3,2.5,5.3,2.9c-2,0.7-3.7,2-5,3.6c-1.4-1.5-3.3-2.6-5.4-3.1   C505.2,651.7,506.9,650.5,508.2,648.9z M509.3,670.3c1.2,1.2,2.6,2.1,4.1,2.7c-1.6,1-2.9,2.4-3.8,4c-1.1-1.5-2.5-2.8-4.2-3.6   C506.9,672.7,508.3,671.6,509.3,670.3z M510.6,696.5c-1-1.4-2.3-2.6-3.8-3.5c1.4-1,2.6-2.3,3.4-3.8c1,1.4,2.3,2.6,3.8,3.4   C512.7,693.6,511.5,695,510.6,696.5z M519.1,651.1c1.9-0.8,3.5-2.2,4.6-3.9c1.6,1.3,3.5,2.1,5.6,2.3c-1.9,0.9-3.5,2.4-4.6,4.1   C523.1,652.3,521.2,651.4,519.1,651.1z M527.1,668.4c1.3,1.1,2.8,1.8,4.4,2.3c-1.5,1.2-2.6,2.7-3.4,4.4c-1.2-1.4-2.8-2.5-4.5-3.1   C525,671.1,526.2,669.8,527.1,668.4z M531.2,694.3c-1.1-1.3-2.6-2.4-4.1-3.1c1.3-1.1,2.3-2.5,3-4.1c1.1,1.3,2.5,2.3,4.1,3   C532.9,691.3,531.8,692.7,531.2,694.3z M534.8,648.3c1.8-1,3.3-2.5,4.2-4.4c1.7,1.1,3.7,1.7,5.8,1.7c-1.8,1.1-3.2,2.7-4.1,4.6   C539,649.1,536.9,648.4,534.8,648.3z M541.4,668.6c1.3-1.1,2.4-2.4,3.1-3.9c1.4,0.9,3,1.5,4.6,1.8c-1.3,1.3-2.3,3-2.9,4.7   C544.9,670,543.3,669.1,541.4,668.6z M551.3,690c-1.3-1.2-2.8-2.1-4.4-2.7c1.2-1.3,2-2.8,2.6-4.4c1.3,1.2,2.8,2,4.4,2.5   C552.7,686.8,551.8,688.4,551.3,690z M556.2,645.2c-1.8-1-3.9-1.4-6-1.3c1.7-1.2,3-2.9,3.7-4.8c1.8,0.9,3.9,1.3,6,1.1   C558.2,641.5,556.9,643.2,556.2,645.2z M558.9,663.4c1.2-1.2,2.1-2.6,2.7-4.2c1.5,0.8,3.1,1.2,4.8,1.3c-1.2,1.5-2,3.2-2.4,5   C562.5,664.4,560.7,663.6,558.9,663.4z M570.9,683.6c-1.4-1-3-1.8-4.7-2.2c1-1.4,1.7-3,2.1-4.6c1.4,1,3,1.7,4.6,2.1   C572,680.3,571.3,681.9,570.9,683.6z M571.1,638.5c-1.9-0.8-4-1-6.1-0.6c1.6-1.4,2.7-3.2,3.2-5.1c1.9,0.8,4,0.9,6,0.4   C572.7,634.7,571.6,636.5,571.1,638.5z M581,657.9c-1.6-1-3.4-1.5-5.3-1.6c1.1-1.3,1.8-2.8,2.2-4.4c1.5,0.6,3.2,0.9,4.9,0.8   C581.8,654.3,581.1,656.1,581,657.9z M579,630.4c1.4-1.5,2.3-3.4,2.6-5.4c2,0.6,4.1,0.5,6.1-0.2c-1.4,1.6-2.2,3.6-2.5,5.6   C583.2,629.8,581.1,629.8,579,630.4z M589.8,675.2c-1.5-0.9-3.2-1.5-4.9-1.7c0.9-1.5,1.4-3.1,1.6-4.8c1.5,0.9,3.1,1.4,4.8,1.6   C590.5,671.8,589.9,673.5,589.8,675.2z M597.1,648.6c-1.7-0.8-3.6-1.1-5.4-1c0.9-1.4,1.5-3,1.8-4.7c1.6,0.5,3.3,0.5,4.9,0.3   C597.5,644.9,597,646.7,597.1,648.6z M607.6,664.9c-1.6-0.7-3.3-1.1-5-1.2c0.7-1.6,1.1-3.2,1.1-5c1.6,0.7,3.3,1.1,5,1   C608,661.4,607.6,663.2,607.6,664.9z M612.1,637.7c-1.8-0.6-3.7-0.8-5.5-0.5c0.8-1.5,1.2-3.1,1.3-4.8c1.6,0.3,3.3,0.2,4.9-0.2   C612.1,633.9,611.9,635.8,612.1,637.7z M624.3,652.8c-1.6-0.6-3.4-0.8-5.1-0.6c0.6-1.6,0.7-3.3,0.5-5.1c1.6,0.6,3.4,0.7,5.1,0.5   C624.3,649.3,624.1,651.1,624.3,652.8z M625.9,625.2c-1.8-0.4-3.7-0.4-5.5,0.1c0.6-1.6,0.9-3.3,0.8-4.9c1.7,0.1,3.3-0.1,4.9-0.8   C625.5,621.5,625.5,623.4,625.9,625.2z M634.5,638.9c0.4-1.7,0.4-3.4,0-5.1c1.7,0.4,3.4,0.4,5.1,0c-0.3,1.7-0.3,3.5,0.1,5.2   C638,638.6,636.2,638.6,634.5,638.9z M648.3,624.1c0.2-1.7,0-3.4-0.5-5.1c1.7,0.2,3.4,0,5.1-0.5c-0.1,1.7,0.1,3.5,0.6,5.1   C651.7,623.4,650,623.6,648.3,624.1z"
   id="path12" />
	<path
   class="st1"
   d="M502.2,806.3c-3.1,29.6-10.8,57.7-25.2,84c-5.4,9.8-11.6,19.5-19.9,27.2c-2.6,2.4-5.3,4.5-8.1,6.5   c-2,1.4-6.1,2.4-7.3,4.5c7.9-12.7,15-39,19.1-60.1c4.3-22.4,6.8-45,7.1-65.5c13.6-32,22.1-61.7,25.4-88.8c2,1.4,4.5,2.3,7.2,2.3   c0.6,0,1.2,0,1.8-0.1c0.2,1.8,0.3,3.5,0.4,5.3c0.1,2.2,0.2,4.3,0.2,6.5c0,15.6,1.6,31.3,1.3,47   C503.8,785.5,503.3,795.9,502.2,806.3z M488.3,711.2c-2.6,2.9-6.5,4.5-10.6,4.1c-4.6-0.5-8.3-3.3-10.1-7.2c-0.2,0-0.3,0-0.5-0.1   c-2.9,3.1-7.4,4.7-11.8,3.7c-4.3-0.9-7.6-3.9-9.1-7.7c-0.4-0.1-0.7-0.2-1.1-0.3c-2.6,2-5.8,3-9.2,2.6c-3.1,4.7-5.9,9.5-8.6,14.5   c-8.6,15.8-15.2,32.7-19.7,50.1c-11.1,42.5-10.2,87.7-0.8,130.6c24.8-34.5,45.2-72.1,60.5-111.7C478.7,765,485.8,738.3,488.3,711.2   z M570.6,704.1c-1,0.7-2.1,1.3-3.3,1.7c-4.5,1.5-9.2,0.3-12.5-2.7c-1.3,4.2-4.8,7.6-9.4,8.6c-4.1,0.9-8.2-0.4-11.1-3   c-1.9,15.4-3.2,30.9-3.5,46.5c-0.2,12.4,0.4,24.9,1.9,37.2c5.3,42.8,24,85.7,59.1,110.9c4.1-40.7,8.1-82,1.8-122.4   C589.4,754.3,580.9,728.9,570.6,704.1z M308.7,737.7c27.3-14.3,52.4-34.4,67.8-60.9c-1.2-0.4-2.4-1-3.5-1.8c-3-2.2-4.7-5.4-5.1-8.7   c-1-0.8-2-1.6-3-2.4c-3.4,0.3-6.8-0.7-9.5-3.2c-2.6-2.3-4-5.5-4.2-8.8c-1.1-1-2.2-2.1-3.2-3.1c-1.9-0.1-3.8-0.7-5.6-1.7   c-3,2.9-6,5.8-9.1,8.5c-11.9,10.5-24.8,19.9-38.5,28c-3.8,2.2-8,4-11.7,6.5c-7.7,4-15.7,7.6-21.6,13.9c-9.7,10.3-11.9,25.4-18,38.2   c-6.1,12.7-16.1,23.1-24.6,34.3c-8.5,11.3-15.9,24.5-15.1,38.6c7.7-21,25.5-36.8,44.8-48.1C267.7,755.8,288.9,748.1,308.7,737.7z    M431.7,705.1c-3.1-1.5-5.4-4.3-6.4-7.4c-0.6-0.2-1.1-0.4-1.7-0.6c-3.4,1.9-7.6,2.3-11.4,0.6c-3.7-1.6-6.1-4.8-7.1-8.4   c-0.7-0.4-1.5-0.7-2.2-1.1c-0.3,0.1-0.5,0.2-0.8,0.3c-27.5,28.6-47.4,64.4-57.4,102.9c-10,38.6-9.8,79.8,0.5,118.3   c9.8-29.1,40.5-47.9,48.5-77.5c2.3-8.5,2.5-17.4,3.2-26.1C399.9,770.2,411.2,734.7,431.7,705.1   C431.7,705.2,431.7,705.1,431.7,705.1z M392.4,692.2c1.1-1.2,2.2-2.3,3.3-3.4c-1.3-0.3-2.5-0.7-3.7-1.4c-3.3-1.9-5.4-5.1-6.1-8.6   c-0.9-0.5-1.8-1.1-2.7-1.7c-0.9,0.2-1.8,0.3-2.7,0.3C366.7,703,345,724.3,319,737.4c-9.1,4.6-18.8,8.3-26.3,15.3   c-6.2,5.8-10.2,13.4-14.2,20.9c-17.6,33.3-35.5,67.6-40.7,104.9c10.4-2.4,20.2-6.6,29.3-12c14.5-8.7,27.2-20.6,37.8-33.9   c17.3-21.5,29.7-46.5,42.4-71C360.1,737,373.5,712.4,392.4,692.2z M526.2,761c-0.2-17.1,0.9-33.4,2.5-47.8c-1.6,1.1-3.6,1.8-5.6,2   c-4.7,0.5-9.1-1.7-11.6-5.3c-1.1,2-2.8,3.7-4.9,4.9c3.4,36.7,4.7,85.9-5.5,127.2c4.9,27.7,12.8,57.1,23.7,87.4   c4.9-10.3,15.8-35,24.8-66.6c-3.4-6.1-6.5-12.7-9.1-19.4C531.4,820,526.6,792.3,526.2,761z M836.2,641.7c-6.5,0.1-13,0-19.3-0.3   c-12-0.5-23.8-1.7-35.1-3.6c9.6,10.2,18.7,21.9,26.9,34.8c19.9,3.7,39.8,3.8,59.3,0.2C863.4,667.5,852.2,655.4,836.2,641.7z    M706,711.9c-0.1-0.1-0.2-0.2-0.4-0.3c-0.4-0.3-0.8-0.7-1.2-1C705,711,705.5,711.5,706,711.9z M630.2,788.6   c-20-27.2-35.4-58.4-40.4-91.7c-0.4,0.3-0.9,0.5-1.4,0.7c-4.3,1.9-9.1,1.2-12.7-1.4c-0.4,1.8-1.1,3.5-2.2,5   c13.7,32.1,27.4,64.7,28.4,99.4c0.5,17.7-2.3,35.7,0,53.1c0.3,2.1,0.6,4.2,1.1,6.2c4.5,21.2,17.7,39.4,30.7,56.9   c11.9-20.4,14.1-44.9,15.9-68.5c0.7-9.3,1.5-18.8-0.9-27.9C645.7,808.4,637.6,798.5,630.2,788.6z M969.7,601h-939v14h153.5   c-10.6,2.3-20.2,4.1-28.4,5.1c-8.2,1.1-14.8,1.4-19.5,1.1c-1.7-0.1-3.6-0.3-5.7-0.6c-17.1,9.6-30,17.8-36.7,22.2   c12,2.8,48.5,10.4,92.3,9.6c4.8-0.1,9.8,0.3,14.3-1.4c0.8-0.3,1.6-0.7,2.4-1.2c4.8-2.9,8.2-7.6,12.4-11.1   c6.5-5.5,13.2-10.8,20.2-15.7c4-2.8,8-5.4,12.2-8h9.3c-6.3,3.8-12.3,8.2-18.1,12.3c-12.1,8.6-23.7,18-34.5,28.1   c-21.7,20.3-40.7,43.5-56.1,68.9c-1.9,3-3.7,6.1-5.4,9.2c43.9-8.9,87.7-20.5,127.1-41.9c25.3-11.8,48.6-28,68.5-47.7   c-1.7-2.3-2.6-5.1-2.5-7.8c-1.1-1.3-2.3-2.7-3.3-4c-3-0.6-5.8-2.3-7.7-4.9c-1.9-2.6-2.6-5.6-2.3-8.5c-0.8-1.2-1.6-2.4-2.4-3.6h3.2   h76.8h0h199.7h0.2h71.6h5.3c1.5,3.9,1.1,8.4-1.5,12c-2.8,3.8-7.3,5.6-11.7,5.1c1.4,4.2,0.6,9-2.6,12.5c-2,2.2-4.6,3.5-7.3,4   c13.1,23.9,30.7,45.4,51.6,63c23.8,20.4,52.5,35.1,83,42.3c-10.1-34-26.5-66.4-49.9-93c-16.5-18.9-36.7-34.8-59.1-45.9h8   c3.7,2.5,7.5,5,11.4,7.3c27.1,16.1,50.2,40.3,66.3,67.3c2.6,4.3,5,8.7,7.3,13.2c3.7,7.4,7.1,15.1,12.5,21.4   c6.4,7.4,15.2,12.3,24.4,15.4c9.2,3.1,18.9,4.5,28.6,5.9c-11.3-33.7-28.3-65.4-50-93.5c-3.7-4.8-7.6-9.6-12.7-12.9   c-6.2-4-13.6-5.5-20.7-7.3c-8.9-2.2-24.4-8.9-40.8-16.7h7.8c4,1.8,8,3.5,12,5c19.1,7.4,39.2,12.3,59.6,14.8   c40.7,5.1,82.2,1.1,122.2-8.3c-5.5-3.9-11.1-7.8-16.7-11.6h71V601z M640.1,679.7c-2.3-4.1-4.9-8.1-7.6-11.9   c-0.7,2.8-2.3,5.3-4.8,7.1c-3.8,2.8-8.7,3.1-12.7,1.2c0.1,4.4-2.2,8.7-6.3,11.1c-4.1,2.4-9,2.2-12.8-0.1c-0.2,2.3-1.1,4.5-2.4,6.3   c1.5,8.3,3.5,16.4,6.1,24.4c5.1,15.8,12.1,30.9,20.3,45.3c20.8,36.5,48.5,68.6,72.1,103.3c0,0.1,0.1,0.1,0.1,0.2   c-7.2-48-18.4-95.4-33.3-141.7C653.8,709.6,648.3,694,640.1,679.7z M649.4,650.3c0.3,3.8-1.1,7.6-4.1,10.4   c-2.8,2.5-6.3,3.5-9.7,3.2c11.7,15.9,22.1,36.6,31.1,61.5c21.2,22.2,49.9,38.3,85.1,48.1c-8.7-9.6-27.3-30.7-39.6-50.5   C686.5,703.8,665.5,679.4,649.4,650.3z"
   id="path14" />
	<path
   class="st0"
   d="M689.5,399c0.3-2.6-0.2-5.3-1.6-7.7c-2.4-4.1-6.7-6.4-11.1-6.3c1.8-4,1.5-8.9-1.2-12.7   c-2.8-3.8-7.3-5.6-11.7-5.1c1.4-4.2,0.6-9-2.6-12.5c-3.2-3.5-7.9-4.8-12.2-3.9c1-4.3-0.3-9-3.9-12.2c-3.5-3.2-8.3-4-12.5-2.6   c0.5-4.4-1.3-8.9-5.1-11.7c-3.8-2.8-8.7-3.1-12.7-1.2c0.1-4.4-2.2-8.7-6.3-11.1c-4.1-2.4-9-2.2-12.8,0.1c-0.4-4.4-3.1-8.5-7.4-10.4   c-4.3-1.9-9.2-1.2-12.7,1.4c-0.9-4.3-4-8.1-8.5-9.5c-4.5-1.5-9.2-0.3-12.5,2.7c-1.3-4.2-4.8-7.6-9.4-8.6c-4.6-1-9.2,0.7-12.1,4   c-1.7-4.1-5.6-7.1-10.3-7.6c-4.7-0.5-9.1,1.7-11.6,5.3c-2.2-3.9-6.3-6.5-11-6.5c-4.7,0-8.9,2.6-11,6.5c-2.6-3.6-6.9-5.8-11.6-5.3   c-4.7,0.5-8.5,3.5-10.3,7.6c-2.9-3.3-7.5-5-12.1-4c-4.6,1-8.1,4.4-9.4,8.6c-3.2-3-8-4.2-12.5-2.7c-4.5,1.5-7.6,5.2-8.5,9.6   c-3.5-2.6-8.4-3.3-12.7-1.4c-4.3,1.9-7,6-7.4,10.4c-3.8-2.3-8.7-2.5-12.8-0.1c-4.1,2.4-6.4,6.7-6.3,11.1c-4-1.8-8.9-1.5-12.7,1.2   c-3.8,2.8-5.6,7.3-5.1,11.7c-4.2-1.4-9-0.6-12.5,2.6c-3.5,3.2-4.8,7.9-3.9,12.2c-4.3-1-9,0.3-12.2,3.9c-3.2,3.5-4,8.3-2.6,12.5   c-4.4-0.5-8.9,1.3-11.7,5.1c-2.8,3.8-3.1,8.7-1.2,12.7c-4.4-0.1-8.7,2.2-11.1,6.3c-1.4,2.4-1.9,5.1-1.6,7.6H689.5z M660.4,391.3   c1.6,0.7,3.3,1,5.1,1c-0.7,1.6-1.1,3.3-1.2,5c-1.6-0.7-3.2-1.1-5-1.1C660.1,394.7,660.5,393,660.4,391.3z M648.2,375.2   c1.7,0.5,3.4,0.7,5.2,0.5c-0.6,1.6-0.8,3.4-0.6,5.1c-1.6-0.6-3.3-0.7-5.1-0.5C648.3,378.6,648.4,376.9,648.2,375.2z M639.6,360.3   c-0.4,1.7-0.4,3.5-0.1,5.2c-1.7-0.4-3.4-0.4-5.1,0c0.4-1.7,0.4-3.4,0-5.1C636.1,360.7,637.9,360.7,639.6,360.3z M638.3,387.9   c-0.6,1.8-0.8,3.7-0.5,5.5c-1.5-0.8-3.1-1.2-4.8-1.3c0.3-1.6,0.2-3.3-0.2-4.9C634.5,387.8,636.4,388.1,638.3,387.9z M625.9,379.6   c-1.6-0.6-3.3-0.9-4.9-0.8c0.1-1.7-0.1-3.3-0.8-4.9c1.8,0.5,3.7,0.5,5.6,0.1C625.4,375.9,625.5,377.8,625.9,379.6z M624.2,346.5   c-0.2,1.7,0,3.5,0.5,5.2c-1.7-0.2-3.4,0-5.1,0.5c0.2-1.7,0-3.4-0.5-5.1C620.8,347.3,622.6,347.1,624.2,346.5z M605.8,394   c0.1-2-0.4-4.1-1.5-5.9c1.9,1,4,1.4,6,1.3c-0.1,2.1,0.3,4.2,1.3,6C609.9,394.4,607.9,393.9,605.8,394z M612,361.6   c-0.2,1.8,0,3.7,0.7,5.5c-1.6-0.4-3.3-0.5-5-0.2c-0.1-1.7-0.5-3.3-1.3-4.8C608.3,362.4,610.2,362.2,612,361.6z M607.5,334.4   c0,1.7,0.3,3.5,1,5.1c-1.7,0-3.4,0.3-5,1c0-1.7-0.3-3.4-1.1-5C604.2,335.5,606,335.1,607.5,334.4z M600.2,384.4   c-1.9-0.9-4-1.2-6-0.8c-0.1-2-0.8-4-2.1-5.7c2,0.8,4.1,1,6.1,0.6C598.4,380.6,599,382.6,600.2,384.4z M597,350.7   c0,1.9,0.4,3.7,1.3,5.4c-1.7-0.3-3.4-0.2-5,0.3c-0.2-1.6-0.8-3.2-1.8-4.6C593.4,351.8,595.3,351.5,597,350.7z M589.7,324.1   c0.2,1.7,0.7,3.4,1.5,4.9c-1.7,0.1-3.4,0.7-4.8,1.6c-0.2-1.7-0.7-3.4-1.6-4.8C586.5,325.5,588.2,325,589.7,324.1z M585.1,368.9   c0.3,2,1.2,4,2.5,5.6c-2-0.7-4.1-0.7-6.1-0.2c-0.3-2-1.2-3.9-2.6-5.4C581,369.5,583.1,369.5,585.1,368.9z M580.9,341.4   c0.2,1.9,0.8,3.6,1.8,5.2c-1.7-0.1-3.4,0.2-4.9,0.8c-0.4-1.6-1.2-3.1-2.2-4.4C577.4,342.9,579.2,342.4,580.9,341.4z M568,366.6   c-0.5-2-1.6-3.8-3.2-5.1c2.1,0.4,4.2,0.1,6.1-0.6c0.5,2,1.6,3.9,3.1,5.3C572,365.6,569.9,365.8,568,366.6z M570.8,315.7   c0.3,1.7,1,3.3,2,4.8c-1.7,0.3-3.3,1-4.6,2.1c-0.3-1.7-1.1-3.3-2.1-4.6C567.8,317.5,569.4,316.7,570.8,315.7z M563.9,333.8   c0.4,1.8,1.2,3.5,2.4,5c-1.7,0.1-3.3,0.5-4.8,1.3c-0.6-1.6-1.5-3-2.7-4.2C560.6,335.7,562.4,335,563.9,333.8z M556.1,354.1   c0.7,1.9,2,3.7,3.6,5c-2.1-0.3-4.2,0.1-6,1.1c-0.7-1.9-2-3.6-3.7-4.8C552.1,355.6,554.2,355.1,556.1,354.1z M551.2,309.3   c0.5,1.7,1.4,3.2,2.5,4.5c-1.6,0.5-3.1,1.4-4.4,2.5c-0.5-1.6-1.4-3.1-2.6-4.4C548.4,311.4,549.9,310.5,551.2,309.3z M546.2,328.1   c0.6,1.8,1.5,3.4,2.9,4.7c-1.7,0.3-3.3,0.9-4.6,1.8c-0.7-1.5-1.8-2.8-3.1-3.9C543.1,330.3,544.8,329.4,546.2,328.1z M540.5,349.1   c0.9,1.9,2.3,3.5,4.1,4.6c-2.1-0.1-4.1,0.6-5.8,1.7c-0.9-1.8-2.4-3.4-4.2-4.4C536.8,350.9,538.8,350.3,540.5,349.1z M531,305   c0.7,1.6,1.7,3,3,4.2c-1.6,0.7-3,1.7-4.1,3c-0.7-1.6-1.7-3-3-4.1C528.5,307.4,529.9,306.3,531,305z M528,324.2   c0.7,1.7,1.9,3.2,3.3,4.4c-1.6,0.4-3.1,1.2-4.4,2.3c-0.9-1.4-2.1-2.6-3.5-3.5C525.2,326.7,526.8,325.6,528,324.2z M524.6,345.7   c1.1,1.7,2.7,3.2,4.6,4.1c-2.1,0.2-4,1-5.6,2.3c-1.1-1.7-2.7-3.1-4.6-3.9C521,347.9,523,347,524.6,345.7z M510.5,302.9   c0.9,1.5,2,2.8,3.4,3.9c-1.5,0.8-2.8,2-3.8,3.4c-0.8-1.5-2-2.8-3.4-3.8C508.2,305.5,509.5,304.3,510.5,302.9z M509.5,322.3   c0.9,1.6,2.2,3,3.8,4c-1.6,0.6-3,1.5-4.2,2.7c-1-1.3-2.3-2.4-3.8-3.1C507,325.1,508.4,323.8,509.5,322.3z M508.3,344   c1.3,1.6,3,2.9,5,3.6c-2.1,0.4-3.9,1.4-5.3,2.9c-1.3-1.6-3-2.8-5-3.4C505.1,346.6,506.9,345.5,508.3,344z M492.4,350.5   c-1.4-1.5-3.3-2.5-5.3-2.9c2-0.7,3.7-2,5-3.6c1.4,1.5,3.3,2.6,5.4,3.1C495.4,347.7,493.6,348.9,492.4,350.5z M491.2,329.1   c-1.2-1.2-2.6-2.1-4.1-2.7c1.6-1,2.9-2.4,3.8-4c1.1,1.5,2.5,2.8,4.2,3.6C493.6,326.7,492.3,327.7,491.2,329.1z M489.9,302.9   c1,1.4,2.3,2.6,3.8,3.5c-1.4,1-2.6,2.3-3.4,3.8c-1-1.4-2.3-2.6-3.8-3.4C487.9,305.7,489,304.4,489.9,302.9z M481.5,348.3   c-1.9,0.8-3.5,2.2-4.6,3.9c-1.6-1.3-3.5-2.1-5.6-2.3c1.9-0.9,3.5-2.4,4.6-4.1C477.4,347.1,479.3,347.9,481.5,348.3z M473.5,330.9   c-1.3-1.1-2.8-1.8-4.4-2.3c1.5-1.2,2.6-2.7,3.4-4.4c1.2,1.4,2.8,2.5,4.5,3.1C475.5,328.3,474.3,329.5,473.5,330.9z M469.4,305.1   c1.1,1.3,2.6,2.4,4.1,3.1c-1.3,1.1-2.3,2.5-3,4.1c-1.1-1.3-2.5-2.3-4.1-3C467.7,308.1,468.7,306.7,469.4,305.1z M465.7,351   c-1.8,1-3.3,2.5-4.2,4.4c-1.7-1.1-3.7-1.7-5.8-1.7c1.8-1.1,3.2-2.7,4.1-4.6C461.6,350.3,463.6,351,465.7,351z M459.1,330.8   c-1.3,1.1-2.4,2.4-3.1,3.9c-1.4-0.9-3-1.5-4.6-1.8c1.3-1.3,2.3-3,2.9-4.7C455.6,329.4,457.3,330.3,459.1,330.8z M449.2,309.4   c1.3,1.2,2.8,2.1,4.4,2.7c-1.2,1.3-2,2.8-2.6,4.4c-1.3-1.2-2.8-2-4.4-2.5C447.8,312.6,448.7,311,449.2,309.4z M444.3,354.2   c1.8,1,3.9,1.4,6,1.3c-1.7,1.2-3,2.9-3.7,4.8c-1.8-0.9-3.9-1.3-6-1.1C442.4,357.9,443.6,356.1,444.3,354.2z M441.7,336   c-1.2,1.2-2.1,2.6-2.7,4.2c-1.5-0.8-3.1-1.2-4.8-1.3c1.2-1.5,2-3.2,2.4-5C438.1,335,439.8,335.7,441.7,336z M429.6,315.7   c1.4,1,3,1.8,4.7,2.2c-1,1.4-1.7,3-2.1,4.6c-1.4-1-3-1.7-4.6-2.1C428.6,319.1,429.2,317.4,429.6,315.7z M429.4,360.8   c1.9,0.8,4,1,6.1,0.6c-1.6,1.4-2.7,3.2-3.2,5.1c-1.9-0.8-4-0.9-6-0.4C427.9,364.7,428.9,362.8,429.4,360.8z M419.6,341.4   c1.6,1,3.4,1.5,5.3,1.6c-1.1,1.3-1.8,2.8-2.2,4.4c-1.5-0.6-3.2-0.9-4.9-0.8C418.8,345.1,419.4,343.3,419.6,341.4z M421.5,369   c-1.4,1.5-2.3,3.4-2.6,5.4c-2-0.6-4.1-0.5-6.1,0.2c1.4-1.6,2.2-3.6,2.5-5.6C417.3,369.6,419.4,369.6,421.5,369z M410.7,324.1   c1.5,0.9,3.2,1.5,4.9,1.7c-0.9,1.5-1.4,3.1-1.6,4.8c-1.5-0.9-3.1-1.4-4.8-1.6C410.1,327.5,410.6,325.9,410.7,324.1z M403.5,350.7   c1.7,0.8,3.6,1.1,5.4,1c-0.9,1.4-1.5,3-1.8,4.7c-1.6-0.5-3.3-0.5-4.9-0.3C403.1,354.5,403.5,352.6,403.5,350.7z M402.1,378.6   c2,0.4,4.2,0.1,6.1-0.6c-1.3,1.7-2,3.7-2.1,5.7c-2-0.3-4.1-0.1-6,0.8C401.4,382.7,402,380.7,402.1,378.6z M394.6,394.1   c-2-0.1-4.1,0.4-5.9,1.5c1-1.9,1.4-4,1.3-6c2.1,0.1,4.2-0.3,6-1.3C394.9,390,394.5,392.1,394.6,394.1z M392.9,334.4   c1.6,0.7,3.3,1.1,5,1.2c-0.7,1.6-1.1,3.2-1.1,5c-1.6-0.7-3.3-1.1-5-1C392.6,337.9,392.9,336.2,392.9,334.4z M388.4,361.7   c1.8,0.6,3.7,0.8,5.5,0.5c-0.8,1.5-1.2,3.1-1.3,4.8c-1.6-0.3-3.3-0.2-4.9,0.2C388.4,365.4,388.7,363.5,388.4,361.7z M376.2,346.6   c1.6,0.6,3.4,0.8,5.1,0.6c-0.6,1.6-0.7,3.3-0.5,5.1c-1.6-0.6-3.4-0.7-5.1-0.5C376.2,350.1,376.4,348.3,376.2,346.6z M374.6,374.1   c1.8,0.4,3.7,0.4,5.5-0.1c-0.6,1.6-0.9,3.3-0.8,4.9c-1.7-0.1-3.3,0.1-4.9,0.8C375,377.9,375,376,374.6,374.1z M367.4,392.2   c-1.7,0.1-3.3,0.5-4.8,1.3c0.3-1.9,0.2-3.8-0.5-5.5c1.8,0.2,3.7,0,5.5-0.7C367.2,388.9,367.1,390.6,367.4,392.2z M366.1,360.5   c-0.4,1.7-0.4,3.4,0,5.1c-1.7-0.4-3.4-0.4-5.1,0c0.3-1.7,0.3-3.5-0.1-5.2C362.6,360.8,364.3,360.8,366.1,360.5z M352.2,375.3   c-0.2,1.7,0,3.4,0.5,5.1c-1.7-0.2-3.4,0-5.1,0.5c0.1-1.7-0.1-3.5-0.6-5.1C348.8,375.9,350.6,375.8,352.2,375.3z M340,391.4   c0,1.7,0.3,3.4,1,5c-1.7,0-3.4,0.3-5,1.1c0-1.7-0.4-3.5-1.2-5C336.7,392.4,338.4,392.1,340,391.4z"
   id="path16" />
	<path
   class="st1"
   d="M535.7,165c7.8-21,19.4-41,31.4-59.9c0.8-1.3,8.3-14.1,9.2-13.9c9.9,2.9,17.5,11.3,21.7,20.8   c4.2,9.4,5.5,19.9,6.6,30.2c1.4,14.1,2.4,28.4,2.6,42.6c0.4,28.6-2.4,57.1-11,84.3c-3.5,10.9-8,21.5-13.6,31.6   c-2.5,0.1-4.9,1-6.9,2.5c-0.9-4.3-4-8.1-8.5-9.5c-4.5-1.5-9.2-0.3-12.5,2.7c-1.3-4.2-4.8-7.6-9.4-8.6c-4.6-1-9.2,0.7-12.1,4   c-1.7-4.1-5.6-7.1-10.3-7.6c-0.5-0.1-1-0.1-1.4-0.1c-3-22.9-1.6-46.2,2.2-68.9c1.9-11.5,4.5-22.9,7.4-34.2   C532.4,175.6,533.7,170.3,535.7,165z M441.3,277c1.5,5.8,3.3,11.6,5.3,17.3c1.7-3.2,4.7-5.7,8.6-6.5c4.5-1,8.9,0.6,11.8,3.7   c0.2,0,0.3,0,0.5-0.1c1.8-3.9,5.5-6.7,10.1-7.2c4.7-0.5,9.1,1.7,11.6,5.3c1-1.7,2.3-3.2,3.9-4.3c10.5-29.5,15.5-60.9,13.5-92.1   c-0.9-14.1-3.3-28.2-7.1-41.8c-6.3-22.6-16.6-44-30.8-62.6c0.2,0.2-1.5,3.7-1.7,4.1c-8.9,21.2-17.6,42.6-24.2,64.8   c-2.4,8-4.4,16.1-5.7,24.4c-1.8,10.5-2.8,21.2-3,31.8c-0.3,10.7,0.2,21.3,1.4,31.9C436.6,256.2,438.6,266.7,441.3,277z    M598.2,276.4c-3,8.5-6.5,16.9-10.5,25c0.2,0.1,0.4,0.2,0.6,0.3c2.3,1,4.2,2.7,5.5,4.7c12.9-45.3,36.3-87.7,68-122.6   c5.6-6.2,11.6-12.3,15.5-19.7c6.2-11.8,6.6-25.9,3.7-38.9c-2.8-13-8.7-25.1-14.4-37.1c-10.7,21.2-21.9,42.2-33.5,62.9   c-4.1,7.3-8.2,14.5-12.5,21.7c-1.8,3.1-3.6,6.1-5.4,9.1c-1.1,1.8-2.9,3.8-3.6,5.8c-0.8,2.1,0,5.3,0,7.6c0.1,5.5-0.1,11-0.4,16.5   C609.9,233.7,605.5,255.6,598.2,276.4z M614.5,263.7c-7.4,15-13,31.3-17.2,47.7c3.5-1.5,7.7-1.4,11.3,0.6c4.1,2.4,6.4,6.7,6.3,11.1   c2.2-1,4.7-1.4,7.2-1c4.2-8,7.5-16.5,11.5-24.6c8.7-17.5,20.9-33.2,35.7-45.9c10.3-8.8,22-16.4,30.3-27.1   c6.7-8.5,10.9-18.6,15-28.6c8.8-21.3,17.9-43.7,16.3-67.2c0-0.6-0.1-1.2-0.2-1.7c-0.1-0.6-0.1-1.2-0.3-1.8c-3.4,2-6.5,5-9.7,7.4   c-4.4,3.4-8.8,6.8-13,10.5c-8.6,7.4-16.8,15.1-24.6,23.3c-13.6,14.1-26.2,29.1-37.5,45.1C633.9,227.9,623.5,245.4,614.5,263.7z    M753.2,291.7c-1,1.4-2.1,2.9-3.2,4.3c-21.5,28.7-52.5,50.3-86.9,60.5c-0.1,0-0.3,0.1-0.4,0.1c1.9,3.2,2.2,7,1.1,10.4   c4-0.5,8.2,1,11,4.3c29-18.2,60.8-31.9,93.9-40.3c9.3-2.4,18.8-4.4,27.5-8.6c15.9-7.7,27.6-22.1,36.3-37.5   c8.7-15.4,14.9-32.1,23.1-47.7c-14.4,6.1-29.9,9-44.9,13.3c-15,4.3-30.1,10.2-41.4,21C763.1,277.5,758.2,284.7,753.2,291.7z    M648.8,281.2c-3,4.1-5.7,8.3-8.3,12.7c-2.4,4.1-4.1,8.6-6.4,12.6c-3.1,5.4-5.7,11.2-7.6,17.1c0.4,0.2,0.7,0.4,1,0.7   c3.8,2.8,5.6,7.3,5.1,11.7c4.2-1.4,9-0.6,12.5,2.6c3.5,3.2,4.8,7.9,3.9,12.2c3.4-0.8,7-0.1,9.9,1.9c21.2-5,40.9-15.9,57.8-29.7   c18.8-15.3,34.3-34.2,48.2-54.1c10.8-15.4,20.8-31.9,23.9-50.4c0.9-5.4,0.7-11.9-2.8-15.7c-0.6-0.7-1.4-1.3-2.3-1.8   c-4.3-2.4-9.6-1-14.2,0.6c-27.3,9.2-54,21-77.5,37.7C675.6,250.8,660.7,264.9,648.8,281.2z M505.3,152.6c1.2,5.1,2.2,10.3,3.1,15.5   c1.7,10.4,2.7,21,3,31.5c0.6,21.1-1.5,42.3-6.4,62.9c-1.6,6.9-3.6,13.8-5.8,20.5c0.3,0,0.6,0,1,0c4.7,0,8.9,2.6,11,6.5   c1.2-1.7,2.8-3.1,4.7-4c0-1.9,0-3.8,0-5.7c-0.2-13.7-1.8-27.3-1-40.9c1.8-34.3,17.9-66.5,21.9-100.6c2.6-22.7-0.2-45.6-3.3-68.2   c-2.3,5.4-4.6,10.9-6.9,16.3c-7.2,17.1-14.4,34.3-21.6,51.4c-1.1,2.5-2.3,4.4-1.6,7.1C504,147.5,504.7,150,505.3,152.6z M390,170.9   c2.3,17.6,5.1,35.2,9.2,52.5c0.6,2.4,1.2,4.8,1.8,7.2c6,23.3,14.5,46.2,26.3,67.2c1.5-1.9,3.5-3.3,5.9-4.1c2.7-0.9,5.5-0.8,8,0.1   c-0.1-0.3-0.2-0.5-0.4-0.8c-9.4-21.5-13.9-45.2-13.1-68.7c-1.9-14.1,5.8-28.6,2.1-42.4c-1.4-5.2-4.4-9.9-7.4-14.4   c-5.8-8.7-11.9-17.1-18.2-25.4c-3.2-4.1-6.4-8.2-9.7-12.3c-3-3.7-6.1-8.9-9.9-11.6c-0.5,8.4,1.6,17.9,2.4,26.3   C387.9,153.2,388.9,162,390,170.9z M161.3,253.4c2.4,7.6,5.2,15,8.4,22.3c6.4,14.6,14.4,28.4,23.8,41.3c1,1.4,2.1,2.8,3.2,4.2   c4.2,5.5,8.8,10.9,14.6,14.6c6.7,4.3,14.7,6.2,22.4,8.4c30.3,8.7,58.9,23.1,83.9,42.3c0.5-0.3,1.1-0.5,1.6-0.7   c1.1-1.6,2.1-3.3,3.3-4.9c-0.3-2.9,0.5-6,2.4-8.6c1.9-2.7,4.7-4.3,7.7-4.9c1.1-1.4,2.2-2.7,3.3-4c-0.1-2.7,0.7-5.4,2.4-7.7   c-7.9-12.5-18-23.6-28.5-34.1c-22-21.8-46.7-40.8-73.2-56.8c-13.3-8-27.1-15.3-41.3-21.7c-7.1-3.2-14.3-6.2-21.5-9   c-3.6-1.4-7.3-2.7-11-4c-2.6-0.9-7.6-4-7.5,0.2c0.1,3.7,1.7,8,2.7,11.6C159,245.8,160.1,249.7,161.3,253.4z M873.8,399   c11.4-9.4,21.4-20.4,29.6-32.7c-16.5-4.5-34.2-1.3-50.1,5c-3.7,1.5-7.4,3.1-11,4.8c-11.8,5.7-23,12.5-34.4,18.7   c-2.7,1.4-5.4,2.9-8.1,4.2h-10.5c2.9-1.2,5.7-2.4,8.6-3.7c39.4-18,72.8-49,93.7-87c-31.7,10.9-65.5,13.5-98.2,20.6   c-20.9,4.5-41.5,10.9-61.3,19c-19,7.8-37.3,17.1-54.7,27.9c0.9,3,0.7,6.3-0.6,9.1c4.4-0.1,8.7,2.2,11.1,6.3   c1.4,2.4,1.9,5.1,1.6,7.7h-8.8H311.5h-0.5c-0.3-2.6,0.2-5.2,1.6-7.6c0.4-0.6,0.8-1.2,1.2-1.8c-4.2-3.1-8.4-6.2-12.8-9.1   c-12.9-8.5-26.5-15.8-40.7-21.8c-26.4-11.3-54.9-18.5-83.4-21.8c-43.7-5.1-79.9-0.5-91.9,1.4c11.9,8.8,48.5,35.2,91.9,59.4   c0.8,0.4,1.5,0.8,2.3,1.3H30.7v14h939v-14H873.8z M246.3,265.4c32.6,19.8,71.5,49.3,95.3,87.2c1.9-1.3,4.1-2,6.3-2.1   c1.1-1.1,2.1-2.1,3.2-3.1c0-0.5,0.1-1,0.2-1.6c-30.1-29.5-57.7-70.6-77.5-103.6c-6.7-11.3-13.5-23.2-20.2-35.5   c-27.6-15.3-51-24.4-58.7-27.2c-0.1,7.3,1.5,30.4,21.9,69.3C227.1,254.2,237,259.8,246.3,265.4z M382.3,237   c14.5,18.9,26.3,40.2,35.2,63.7c1.9,0,3.8,0.5,5.5,1.4c-13.2-23.5-23.9-55.9-32-97c-2.5-12.7-4.7-26.2-6.6-40.1   c-24-26.6-52.8-43.8-85.8-51.1c9.7,9.6,26.4,31.9,39.9,79.3C355.1,206,369.8,220.7,382.3,237z M241.1,172.7   c3.7,7.6,7.6,15.2,11.6,22.7c7.9,15,16.3,29.8,25.2,44.3c11.4,18.7,23.5,37,36.3,54.8c9.6,13.3,19.6,26.4,30.8,38.4   c2.6,2.8,5.3,5.5,8.1,8.1c0.6-0.9,1.3-1.7,2.1-2.4c2.7-2.4,6.2-3.5,9.5-3.2c1-0.8,2-1.6,3-2.4c0.4-3.4,2.1-6.6,5.1-8.7   c3.1-2.2,6.8-2.9,10.3-2.1c0.9-0.6,1.8-1.1,2.7-1.7c0.7-3.5,2.7-6.7,6.1-8.6c3.5-2,7.4-2.2,10.9-0.8c0.7-0.4,1.5-0.7,2.2-1.1   c0.9-3.6,3.4-6.8,7.1-8.4c0.2-0.1,0.5-0.2,0.7-0.3c-12.3-31.8-31.3-61.1-55.5-85.2c-21.4-21.3-46.9-38.5-74.7-50.7   c-8.4-3.7-16.9-6.8-25.6-9.5c-4.4-1.4-8.7-2.6-13.2-3.7c-3.2-0.8-10.5-3.8-13.4-2.6c0.9,3.9,3.5,7.8,5.2,11.4   C237.4,165,239.3,168.9,241.1,172.7z"
   id="path18" />
</g>
<text
   xml:space="preserve"
   style="font-size:120px;line-height:1.25;font-family:'Comic Sans MS';-inkscape-font-specification:'Comic Sans MS, Normal';word-spacing:0px"
   x="170.28381"
   y="539.23206"
   id="text31"><tspan
     sodipodi:role="line"
     id="tspan29"
     x="170.28381"
     y="539.23206"
     style="font-style:normal;font-variant:normal;font-weight:normal;font-stretch:normal;font-size:120px;font-family:Aliyana;-inkscape-font-specification:Aliyana">Katy Molony</tspan></text></svg>
