<?xml version="1.0" encoding="utf-8"?>
<!-- Generator: Adobe Illustrator 24.0.2, SVG Export Plug-In . SVG Version: 6.00 Build 0)  -->
<svg version="1.1" id="Layer_1" xmlns="http://www.w3.org/2000/svg" xmlns:xlink="http://www.w3.org/1999/xlink" x="0px" y="0px"
	 viewBox="0 0 864 864" style="enable-background:new 0 0 864 864;" xml:space="preserve">
<style type="text/css">
	.st0{stroke:#000000;stroke-width:0.2835;stroke-linecap:round;stroke-linejoin:round;stroke-miterlimit:11.3386;}
	.st1{fill:#6B5141;stroke:#6B5141;stroke-width:0.2835;stroke-linecap:round;stroke-linejoin:round;stroke-miterlimit:11.3386;}
	.st2{fill:#FCC206;stroke:#FCC206;stroke-width:0.2835;stroke-linecap:round;stroke-linejoin:round;stroke-miterlimit:11.3386;}
	.st3{fill:#F2A401;stroke:#F2A401;stroke-width:0.2835;stroke-linecap:round;stroke-linejoin:round;stroke-miterlimit:11.3386;}
	.st4{fill:#85A05B;stroke:#85A05B;stroke-width:0.2835;stroke-linecap:round;stroke-linejoin:round;stroke-miterlimit:11.3386;}
</style>
<path class="st0" d="M261.9,707.2c-42.6,37.7-103.8,43.9-113.7,33.6c-9.9-10.3,1.4-52.5,3.6-59.3c11.9-36.1,26.4-47.1,30-53.5
	c-4.1-0.8-60.8-0.6-100.8-31.9c-13.6-10.7-12.9-17.2-7.8-38.6c7.8-32.9,28.7-53.6,32.4-59.3c-52.4-15.3-60.8-46.2-60.7-56.1
	c0.1-11.3,18.2-43.9,60.8-53.5c-5.4-7.5-27.9-29.5-34.4-69.2c-1.7-10-9.3-21.4,29.6-41.3c29.8-15.2,63-18.4,81.4-19.1
	c-24.2-26-32.5-58.5-34.8-69.1c-4.1-18.7-9.9-49.5,14.3-48.4c0.3,0,11.6,0.7,13.1,0.9c52.8,4,85.4,36,86.9,37.3
	c0.1-54.8,25-98.1,37.7-107.8c4.7-3.6,11.1-9,42.6,1.7c27.1,9.2,45.2,27.1,49.1,29.4c9.5-39.3,38.5-63.1,58.6-60.6
	c9.5,1.2,40.2,16.1,51,60.8c3.2-2.3,25.4-24,57.1-32c22.4-5.7,28.9-5.2,36.1,1.9c33.8,33,36.2,104.2,36.4,106.5
	c41.6-37.6,101.8-42.1,111.3-35.3c10.2,7.4,6,39.1-2.2,63c-11.2,32.8-25.3,46.1-29.7,51.8c11.7,1.4,44.6,0.1,82,19.5
	c38.6,20,31.8,30.8,26.4,52.5c-8,31.9-30.5,55.3-32,57.5c2,0.8,25.7,3.8,47.1,26.8c25.7,27.8,9.1,46.5-1.1,57.3
	c-20.2,21.4-39.9,23.4-45.8,25.7c6.5,11,25.2,25.3,33,62.8c4.4,21.2,5.1,25.9-14.1,39.1c-40.7,28-91.2,26.4-94.9,27.9
	c0.8,1.6,32.3,34.8,36.3,84.1c0.1,1.6,0.9,13.2,0.9,13.4c1.1,17.8-5.7,22.8-41,17.5c-38.4-5.8-66.5-26.8-76.3-36.1
	c-2.8,54.6-18.3,85.6-33.9,104c-6.5,7.7-12,12.3-41.9,3.6c-27.5-8-42.9-23-53.9-31.2c-12.7,54.1-51.9,63.9-63.3,59.5
	c-2.8-1.1-35.2-12.6-46.5-59.6c-6,5.4-71,57.1-96.8,26.4C280.6,793.4,262,754.6,261.9,707.2z"/>
<path class="st1" d="M461.3,621.3c35.2-3.2,105.2-27.9,137.2-83.7c49.8-87.1,29.5-142,2-193c-13.5-25.1-33.8-47-69.5-64.8
	c-20-10-54.5-26.8-99.1-22.7c-44.2,4-86.9,25-123.5,62.9c-7.1,7.4-24,34-34.9,64.2c-6,16.5-11.6,35.9-9.6,66.9
	c1.1,17.2,12.8,83,65.2,127.5C341.8,589.5,397.7,627,461.3,621.3z"/>
<g>
	<path class="st2" d="M378.9,632.6c-2.8,1.5-25.1,9.6-42,67.9c-13.8,47.7-8.6,69.7-17.3,71c-14.7,2.3-5.7-55.7-3.4-67.7
		c11.4-59.3,33.5-74.9,38.2-80.2c-30.4-15.6-47.1-33.5-48-34.2c-42.8,70-36.4,160.3-0.4,205.1c42.7-11.9,70.6-37.1,88.1-58.2
		c26.6-32.2,36.7-64.1,44.5-94.4C436.3,641.8,411.8,640.7,378.9,632.6z"/>
	<path class="st2" d="M537.9,623.6c4.6,5.5,26.9,21,38.1,80.4c2.5,13.3,10.8,67.6-2.8,67.7c-8.2,0.1-4.3-21.6-16.7-66.7
		c-17.4-63.4-41.7-71.6-43.2-72.4c-28.2,7-51.3,8.8-59.8,9.3c9,35.3,22.1,73.2,56.5,107.4c18.7,18.7,48.3,38.9,75.8,45
		c5.9-5.6,16.6-26,22.3-45.5c22.8-77.5-13.7-142.8-22.6-160C571.6,604.9,548.4,618.2,537.9,623.6z"/>
	<path class="st2" d="M261.7,530.9c-19.8,21.1-46.3,32-81.9,38.6c-32.4,5.9-71,7.3-65.7-4.8c2.1-4.8,16.2-4.3,43-9.5
		c31.6-6.1,93.6-27.6,95.5-49c0.2-2.4-8.5-33.1-9-59.6c-60,15.1-84.3,35.4-99.2,48.6c-26.8,23.8-44.4,51.4-53.4,84
		c15.7,13.2,97.4,59,205.2-0.4C294.6,577.1,278.6,563.3,261.7,530.9z"/>
	<path class="st2" d="M648.9,447.1c-1.7,16.8-2.4,31.4-9.4,59.4c11.5,20.9,40.4,34.5,73.2,43.4c39,10.7,63.6,8.7,65.6,15.2
		c3.9,12.6-40,9.1-66.1,4.3c-56.8-10.5-74-30.8-81.6-38.5c-1.1,2.1-16.2,31.4-34.8,47.8c14.3,7.3,45.8,27,95.9,29.4
		c20.4,1,74.6-0.1,109.5-28.9c-9.3-33.1-27.3-61.2-54.8-85.1C713.7,465.8,661.9,447,648.9,447.1z"/>
	<path class="st2" d="M114.1,313.8c-5.1-11.6,30.8-10.8,63.3-5.1c22,3.8,57,11.1,84.3,38.9c17-32.4,31.6-44.2,34.3-48.1
		c-17-8.8-53.8-31.6-115.9-29.2c-16.6,0.7-33.4,3.2-51.2,9.1c-17.8,6-34.6,16.1-37.7,20.2c3.3,17.3,18.8,52.4,52.1,82.6
		c31.4,28.5,65.5,40.5,100.1,49.5c4.2-45.7,7.6-50.2,9.3-59.7c-3.3-8.2-15.5-25.3-61.7-40.2C145.8,317.4,117.3,321,114.1,313.8z"/>
	<path class="st2" d="M596.1,300c11.6,10,26.6,31.8,34.4,47.6c11.2-11,25.4-27.3,78.2-37.8c16.4-3.3,70.7-11.3,69.7,2.7
		c0,0.5-0.2,0.9-0.2,1.1c-2.8,7.8-19.6,2-67.7,15.6c-55.9,15.7-66.1,34.2-71,42.8c8.5,34,7.5,46.5,9.5,59.6
		c15.1-1.6,63.2-17.3,97.6-47.1c32-27.9,50.1-63.2,54.7-85c-10.5-11-50.2-30.2-104.4-29.3C640.1,271.1,597.8,298.8,596.1,300z"/>
	<path class="st2" d="M320,107.1c10.4,2.8,0.6,45.6,29.3,103.3c16.4,32.9,27.9,35.8,31.6,35c51.2-10.7,46-6.8,57.4-8.9
		c-1-13.2-14.8-61.2-48.5-99.2c-32.8-37-78.1-54.8-83.7-52.8c-4.1,1.5-22.5,34.7-27.2,68.1c-4.8,34.4-0.1,60.9,2.2,72.3
		c3,15,6.3,29.2,25.5,64.7c16.3-18.7,45.7-33.6,47.8-34.7c-22.9-22-32.9-50-39.1-85C310.5,142.6,307.9,103.8,320,107.1z"/>
	<path class="st2" d="M453.7,236.5c32.5,3,43.3,5.3,59.7,9.4c2.5-1.4,22.2-8.1,39.3-59.5c12.8-38.7,13.1-76.8,19.1-79.2
		c12-4.8,11,35.4,3.3,72.1c-11.5,54.4-30.3,68.1-37.2,75.6c21.9,11.6,37.4,23.4,47.7,34.7c18.7-34.7,31.4-63,29.4-119.6
		c-1.4-39.8-18.4-73.4-28.9-85.9c-21.9,6-47.8,17.4-75.2,44.3C474.2,164.3,461.3,205.6,453.7,236.5z"/>
</g>
<g>
	<path class="st3" d="M158.9,726.3c3.8,4,51.3-1,87.4-29.8c32.9-26.2,1.7-14.5,36.1-93.6c-72.5,32.6-68.4,3.9-94.8,37.6
		C157.6,679.1,156.5,723.7,158.9,726.3z"/>
	<path class="st3" d="M610,603.1c3.4,8.9,16.8,34.2,19.8,77.1c4.9,6.1,19.4,24.1,53.3,37.6c22.6,9,47.1,11.5,50,8.7
		c1.8-1.6,3.2-26.3-12.3-59c-10.9-22.9-23-35.3-28.1-39.9C678.6,615,687.2,633.3,610,603.1z"/>
	<path class="st3" d="M282.4,275.5c-6.7-18.9-13-25.2-18.1-59.9c-1.4-9.3,5.6-22.4-36.3-46c-33.5-18.8-66-20.6-69-17.6
		c-5.2,5.2,4.5,55.3,29.7,87C214.9,272.2,205.4,240.6,282.4,275.5z"/>
	<path class="st3" d="M609.9,275.4c27-8,15.3-12.1,64.5-18.6c1.2-0.2,19.1,7.2,43.8-40.5c14.5-28.1,18.7-60.2,15.1-64.1
		c-3.9-4.3-54.9,1.2-91.6,33.2c-17.2,15.1-9.8,11.8-15.7,41.2C621.9,247.7,618.3,255.4,609.9,275.4z"/>
</g>
<g>
	<path class="st4" d="M404.1,765.9c-1.4,4.5,3.7,24.8,14,36.7c10.1,11.7,27.6,18.3,28.3,18.2c10.7-1.3,42.6-23.3,41.8-53
		c-0.2-5.6-25.5-26-42-83.6C430.5,738.9,404.7,764.1,404.1,765.9z"/>
	<path class="st4" d="M119.4,397c-45.3,5.7-54.8,39.7-54.7,42.4c0,1.4,7.8,36.1,53.9,42.1c17.9-9.8,27.2-26.8,82.6-42.2
		C153.5,425.4,129.3,405.3,119.4,397z"/>
	<path class="st4" d="M773,397c-38.6,31.1-67.7,37.5-81.6,42.2c5.4,2.2,18.4,4.3,45.4,18.2c27.8,14.3,32.9,23,36.3,23.9
		c4.7,1.3,22.2-3.4,32.8-11.2c15.8-11.7,17.9-24.4,21.8-30.9C822.3,431.2,818.3,402.7,773,397z"/>
	<path class="st4" d="M403.8,112.5c15.4,18.3,31.9,44.6,42.3,81.9c12.1-41.4,22.3-53.5,40.7-80.1c3.9-5.6-3.1-23.7-6.8-30.1
		c-11.2-19.4-25.7-21.7-33.9-26.5c-6.2,3.8-20.9,6.4-32.3,24C407.5,91.5,405.3,100.9,403.8,112.5z"/>
</g>
</svg>
